<svg width="19" height="20" viewBox="0 0 19 20" fill="none" xmlns="http://www.w3.org/2000/svg">
<path d="M18.8636 10.0338C18.8636 4.95256 14.7595 0.833416 9.69694 0.833416C4.63434 0.833416 0.530273 4.95256 0.530273 10.0338C0.530273 14.3486 3.48982 17.969 7.48249 18.9632V12.8453H5.59225V10.0338H7.48249V8.82231C7.48249 5.6908 8.89445 4.23935 11.9576 4.23935C12.5383 4.23935 13.5404 4.35362 13.9503 4.46793V7.01657C13.7339 6.99372 13.3582 6.98227 12.8913 6.98227C11.3882 6.98227 10.8075 7.55372 10.8075 9.03947V10.0338H13.8016L13.2873 12.8453H10.8075V19.1667C15.3463 18.6165 18.8636 14.7377 18.8636 10.0338Z" fill="#5F7896"/>
</svg>
