<svg width="16" height="16" viewBox="0 0 16 16" fill="none" xmlns="http://www.w3.org/2000/svg">
<path fill-rule="evenodd" clip-rule="evenodd" d="M0.19696 1.33333C0.19696 0.873096 0.570056 0.5 1.03029 0.5C4.78753 0.5 8.39087 1.99256 11.0476 4.64932C13.7044 7.30609 15.197 10.9094 15.197 14.6667C15.197 15.1269 14.8239 15.5 14.3636 15.5C13.9034 15.5 13.5303 15.1269 13.5303 14.6667C13.5303 11.3515 12.2133 8.17204 9.86913 5.82783C7.52492 3.48363 4.3455 2.16667 1.03029 2.16667C0.570056 2.16667 0.19696 1.79357 0.19696 1.33333ZM0.19696 7.16667C0.19696 6.70643 0.570056 6.33333 1.03029 6.33333C3.24043 6.33333 5.36005 7.21131 6.92285 8.77411C8.48565 10.3369 9.36363 12.4565 9.36363 14.6667C9.36363 15.1269 8.99053 15.5 8.53029 15.5C8.07006 15.5 7.69696 15.1269 7.69696 14.6667C7.69696 12.8986 6.99458 11.2029 5.74434 9.95262C4.4941 8.70238 2.7984 8 1.03029 8C0.570056 8 0.19696 7.6269 0.19696 7.16667ZM1.86363 12.1667C0.943152 12.1667 0.19696 12.9129 0.19696 13.8333C0.19696 14.7538 0.943152 15.5 1.86363 15.5C2.7841 15.5 3.53029 14.7538 3.53029 13.8333C3.53029 12.9129 2.7841 12.1667 1.86363 12.1667Z" fill="#5F7896"/>
</svg>
